<?xml version="1.0" encoding="iso-8859-1"?>
<!-- Generator: Adobe Illustrator 18.1.1, SVG Export Plug-In . SVG Version: 6.00 Build 0)  -->
<svg version="1.1" id="Capa_1" xmlns="http://www.w3.org/2000/svg" xmlns:xlink="http://www.w3.org/1999/xlink" x="0px" y="0px"
	 viewBox="0 0 195.793 195.793" style="enable-background:new 0 0 195.793 195.793;" xml:space="preserve">
<g>
	<g>
		<path style="fill:#010002;" d="M162.143,49.111c-3.361-0.866-6.85-1.299-10.379-1.299c-7.236,0-13.954,1.893-19.433,5.479
			c-8.829,5.558-14.845,14.967-16.141,25.195c-1.675,10.339,2.688,21.237,10.84,27.214c8.367,6.331,20.675,7.423,28.774,2.376
			c9.087-5.468,13.074-17.329,8.922-26.451c-2.104-4.577-6.227-8.149-11.023-9.541c-1.414-0.415-2.838-0.648-4.245-0.691
			c1.453,0.104,2.902,0.404,4.252,0.88c4.613,1.568,8.478,5.214,10.314,9.745c0.92,2.172,1.389,4.567,1.338,6.886
			c-0.05,2.455-0.476,4.71-1.335,7.09c-1.707,4.481-5.01,8.385-9.087,10.744c-2.978,1.807-6.628,2.774-10.515,2.774
			c-5.705,0-11.535-2.058-15.99-5.647c-7.347-5.848-10.969-15.436-9.452-25.016c1.253-9.323,6.861-17.923,14.999-22.93
			c3.862-2.444,8.417-4.051,13.145-4.627c2.008-0.258,4.556-0.29,7.151-0.093c2.401,0.215,4.817,0.619,7.018,1.177
			c9.205,2.366,17.637,8.163,23.152,15.904c5.744,7.78,8.478,17.171,7.873,27.11c-0.401,9.602-3.701,19.308-9.28,27.282
			c-5.558,8.006-13.56,14.541-22.536,18.402c-4.13,1.811-8.904,3.117-14.176,3.879c-3.278,0.465-6.725,0.544-10.887,0.605
			l-115.822,1.539l-19.619,0.766l130.954,0.086c1.517,0,3.035,0,4.538,0.014l2.788,0.018c2.473,0,5.404-0.047,8.324-0.376
			c5.325-0.662,10.372-1.986,14.974-3.937c9.516-3.955,18.027-10.776,23.975-19.208c6.012-8.425,9.606-18.714,10.128-28.989
			c0.737-10.436-2.298-21.101-8.317-29.314C181.358,57.794,172.168,51.588,162.143,49.111z"/>
		<path style="fill:#010002;" d="M71.513,135.29l3.35,0.039c1.092,0.018,2.094,0.036,3.103,0.036c1.782,0,4.137-0.047,6.578-0.401
			c4.699-0.769,9.176-2.763,12.909-5.766c7.655-6.034,11.667-16.058,10.239-25.564c-1.439-9.516-9.702-17.458-19.215-18.463
			c-5.082-0.637-9.87,0.583-13.446,3.357c-3.869,2.895-6.385,7.222-6.943,11.893c-0.719,4.753,1.041,9.681,4.477,12.641
			c3.446,3.131,8.872,4.345,12.963,2.938c2.949-0.981,5.347-3.364,6.521-6.202c-1.392,2.702-3.937,4.821-6.961,5.504
			c-0.923,0.211-1.775,0.315-2.609,0.315c-3.332,0-6.75-1.446-8.919-3.772c-2.935-3.067-4.037-6.986-3.153-11.309
			c0.777-3.769,3.192-7.494,6.302-9.734c3.271-2.33,7.011-3.196,11.37-2.559c8.077,1.045,14.999,7.967,16.058,16.091
			c1.417,8.031-2.04,17.103-8.618,22.461c-3.239,2.731-7.229,4.606-11.499,5.393c-1.746,0.336-3.446,0.404-5.325,0.455
			l-68.653,1.804c-3.271,0.286-6.653,0.533-10.042,0.784l69.952,0.086C70.41,135.297,70.961,135.29,71.513,135.29z"/>
	</g>
</g>
<g>
</g>
<g>
</g>
<g>
</g>
<g>
</g>
<g>
</g>
<g>
</g>
<g>
</g>
<g>
</g>
<g>
</g>
<g>
</g>
<g>
</g>
<g>
</g>
<g>
</g>
<g>
</g>
<g>
</g>
</svg>
